<?xml version="1.0"?>
<svg width="270" height="156" xmlns="http://www.w3.org/2000/svg" xmlns:svg="http://www.w3.org/2000/svg" enable-background="new 0 0 600 450" version="1.1" xml:space="preserve">
 <g class="layer">
  <title>Layer 1</title>
  <g id="svg_2">
   <g id="svg_3">
    <path d="m14.25,81.62c-0.94,-0.42 -1.77,-0.98 -2.47,-1.68c-0.71,-0.71 -1.27,-1.53 -1.68,-2.47c-0.41,-0.95 -0.62,-1.97 -0.62,-3.07c0,-1.1 0.21,-2.12 0.62,-3.06c0.41,-0.94 0.97,-1.76 1.68,-2.47c0.7,-0.71 1.53,-1.27 2.47,-1.68c0.94,-0.41 1.96,-0.62 3.06,-0.62l35.74,0c0.78,0 1.45,0.28 2,0.83c0.55,0.55 0.82,1.21 0.82,2c0,0.79 -0.27,1.45 -0.82,2c-0.55,0.55 -1.22,0.82 -2,0.82l-35.86,0c-0.58,0 -1.1,0.21 -1.56,0.62c-0.45,0.41 -0.67,0.94 -0.67,1.56c0,0.59 0.22,1.1 0.67,1.53c0.46,0.44 0.98,0.65 1.56,0.65l32.56,0c1.1,0 2.13,0.21 3.09,0.62c0.96,0.41 1.8,0.97 2.5,1.68c0.71,0.7 1.27,1.54 1.68,2.5s0.62,1.99 0.62,3.09s-0.21,2.12 -0.62,3.06c-0.41,0.94 -0.97,1.77 -1.68,2.47c-0.7,0.71 -1.54,1.26 -2.5,1.65c-0.96,0.4 -1.99,0.59 -3.09,0.59l-35.68,0c-0.78,0 -1.45,-0.27 -2,-0.82c-0.55,-0.55 -0.82,-1.22 -0.82,-2.01s0.27,-1.45 0.82,-2c0.55,-0.55 1.22,-0.82 2,-0.82l35.92,0c0.58,0 1.09,-0.21 1.53,-0.62c0.43,-0.41 0.64,-0.91 0.64,-1.5c0,-0.63 -0.21,-1.16 -0.64,-1.59c-0.44,-0.43 -0.95,-0.65 -1.53,-0.65l-32.68,0c-1.1,0 -2.12,-0.2 -3.06,-0.61z" fill="#F5F5F5" id="svg_4"/>
    <path d="m63.53,69.4c0,-0.78 0.27,-1.45 0.82,-2c0.55,-0.55 1.22,-0.83 2,-0.83l35.27,0c1.09,0 2.12,0.21 3.09,0.62c0.96,0.41 1.8,0.97 2.53,1.68c0.72,0.71 1.29,1.53 1.7,2.47c0.42,0.94 0.62,1.97 0.62,3.06c0,1.1 -0.2,2.12 -0.62,3.07c-0.41,0.94 -0.98,1.76 -1.7,2.47c-0.73,0.71 -1.57,1.27 -2.53,1.68c-0.97,0.41 -2,0.62 -3.09,0.62l-30.62,0c-0.51,0.07 -0.94,0.31 -1.29,0.7c-0.36,0.4 -0.53,0.88 -0.53,1.47l0,5.01c0,0.78 -0.29,1.45 -0.86,2c-0.57,0.55 -1.22,0.82 -1.97,0.82c-0.79,0 -1.45,-0.27 -2,-0.82c-0.55,-0.55 -0.83,-1.22 -0.83,-2l0,-5.65c0,-0.98 0.18,-1.92 0.53,-2.8c0.36,-0.88 0.86,-1.65 1.51,-2.3c0.64,-0.64 1.39,-1.15 2.23,-1.53c0.85,-0.37 1.78,-0.56 2.8,-0.56l31.26,0c0.59,0 1.11,-0.2 1.56,-0.61c0.45,-0.42 0.68,-0.94 0.68,-1.56c0,-0.59 -0.23,-1.1 -0.68,-1.54c-0.45,-0.43 -0.97,-0.64 -1.56,-0.64l-35.5,0c-0.79,0 -1.45,-0.28 -2,-0.83c-0.55,-0.55 -0.82,-1.21 -0.82,-2z" fill="#F5F5F5" id="svg_5"/>
    <path d="m117.51,91.18c-0.59,0.71 -1.32,1.06 -2.18,1.06c-0.78,0 -1.45,-0.27 -2,-0.82c-0.55,-0.55 -0.82,-1.22 -0.82,-2c0,-0.71 0.19,-1.28 0.58,-1.71l14.31,-19.25c0.67,-0.9 1.55,-1.64 2.65,-2.21c1.1,-0.57 2.28,-0.85 3.53,-0.85c1.18,0 2.3,0.25 3.36,0.76c1.06,0.51 1.92,1.22 2.59,2.12l14.3,19.14c0.24,0.27 0.43,0.57 0.59,0.91c0.16,0.33 0.24,0.69 0.24,1.09c0,0.78 -0.28,1.45 -0.83,2c-0.55,0.55 -1.21,0.82 -2,0.82c-0.94,0 -1.69,-0.37 -2.24,-1.11l-13.71,-18.31c-0.28,-0.32 -0.62,-0.66 -1.03,-1.03c-0.41,-0.38 -0.84,-0.56 -1.27,-0.56c-0.43,0 -0.85,0.18 -1.26,0.56c-0.42,0.37 -0.74,0.71 -0.98,1.03l-13.83,18.36z" fill="#F5F5F5" id="svg_6"/>
    <path d="m159.07,79.41c0,-1.49 0.25,-2.99 0.74,-4.51c0.49,-1.51 1.21,-2.88 2.15,-4.12c0.94,-1.23 2.08,-2.24 3.41,-3.03c1.34,-0.78 2.85,-1.18 4.54,-1.18l34.32,0c0.78,0 1.45,0.28 2,0.83c0.55,0.55 0.82,1.22 0.82,2c0,0.79 -0.27,1.45 -0.82,2c-0.55,0.55 -1.22,0.83 -2,0.83l-33.09,0c-1.37,0 -2.48,0.24 -3.33,0.73c-0.84,0.49 -1.51,1.09 -2,1.8c-0.49,0.7 -0.82,1.48 -1,2.32c-0.17,0.85 -0.26,1.62 -0.26,2.33s0.09,1.48 0.26,2.32c0.18,0.85 0.51,1.62 1,2.33c0.49,0.7 1.16,1.3 2,1.79c0.85,0.49 1.96,0.74 3.33,0.74l33.09,0c0.78,0 1.45,0.27 2,0.82c0.55,0.55 0.82,1.22 0.82,2.01s-0.27,1.45 -0.82,2c-0.55,0.55 -1.22,0.82 -2,0.82l-34.91,0c-1.61,0 -3.05,-0.39 -4.3,-1.18c-1.26,-0.78 -2.33,-1.79 -3.21,-3.03c-0.88,-1.23 -1.56,-2.62 -2.03,-4.15c-0.47,-1.53 -0.71,-3.02 -0.71,-4.47z" fill="#F5F5F5" id="svg_7"/>
    <path d="m212.94,69.4c0,-0.78 0.27,-1.45 0.82,-2c0.55,-0.55 1.22,-0.83 2.01,-0.83l41.73,0c0.79,0 1.46,0.28 2.01,0.83c0.55,0.55 0.82,1.22 0.82,2c0,0.79 -0.27,1.45 -0.82,2c-0.55,0.55 -1.22,0.83 -2.01,0.83l-41.73,0c-0.79,0 -1.46,-0.28 -2.01,-0.83c-0.55,-0.55 -0.82,-1.21 -0.82,-2zm7.18,22.84c-0.86,0 -1.73,-0.18 -2.59,-0.56s-1.63,-0.89 -2.29,-1.56c-0.67,-0.67 -1.22,-1.47 -1.65,-2.41c-0.44,-0.94 -0.65,-2 -0.65,-3.18l0,-5.3c0,-1.06 0.3,-1.77 0.91,-2.12c0.61,-0.35 1.56,-0.53 2.86,-0.53l39.5,0c0.79,0 1.45,0.28 2,0.83c0.55,0.55 0.83,1.21 0.83,2c0,0.78 -0.28,1.45 -0.83,2c-0.55,0.55 -1.21,0.82 -2,0.82l-37.62,0l0,2.89c0,0.39 0.17,0.73 0.5,1.03c0.34,0.29 0.78,0.44 1.33,0.44l37.08,0c0.79,0 1.46,0.27 2.01,0.82c0.55,0.55 0.82,1.22 0.82,2s-0.27,1.46 -0.82,2.01c-0.55,0.55 -1.22,0.82 -2.01,0.82l-37.38,0z" fill="#F5F5F5" id="svg_8"/>
   </g>
   <path d="m98.19,70.79c0.72,-0.61 1.53,-0.81 2.29,-0.75c4.51,-6.29 9.61,-12.6 15.27,-18.76c13.91,-15.14 28.98,-27.03 42.98,-34.71l-0.74,-1.34c-14.18,7.77 -29.36,19.76 -43.37,35.01c-6.25,6.8 -11.83,13.78 -16.68,20.73c0.08,-0.06 0.16,-0.12 0.25,-0.18z" fill="#F5F5F5" id="svg_9"/>
   <path d="m190.24,6.69c6.17,0.01 11.27,1.66 15.01,5.1c4.36,4 6.47,10.07 6.47,17.67c0.01,8.63 -2.76,19.17 -7.96,30.51l1.69,0c5.08,-11.24 7.81,-21.72 7.81,-30.51c0,-7.86 -2.2,-14.43 -6.97,-18.8c-4.08,-3.76 -9.62,-5.51 -16.05,-5.5c-0.73,0 -1.47,0.02 -2.23,0.06l0.09,1.54c0.73,-0.04 1.44,-0.07 2.14,-0.07z" fill="#F5F5F5" id="svg_10"/>
   <path d="m215.14,117.81l-1.54,0c0.3,2.12 0.45,4.16 0.45,6.09c0,6.73 -1.84,12.23 -5.65,16.08c-3.89,3.95 -9.54,5.86 -16.49,5.87c-9.72,0 -21.93,-3.78 -34.94,-10.8c-13.02,-7.02 -26.85,-17.27 -39.89,-30.14c-6.1,-6.02 -11.6,-12.21 -16.5,-18.43l-1.97,0c5.12,6.59 10.93,13.16 17.39,19.53c13.14,12.96 27.07,23.29 40.24,30.39c13.16,7.1 25.55,10.98 35.67,10.98c7.22,0.01 13.33,-2 17.59,-6.32c4.16,-4.21 6.09,-10.16 6.09,-17.16c0,-1.95 -0.15,-3.98 -0.45,-6.09z" fill="#F5F5F5" id="svg_11"/>
   <g id="svg_12">
    <path d="m165.27,109.07c-2.22,0 -3.07,-0.96 -3.07,-2.36l0,-5.07c0,-1.4 0.85,-2.36 3.07,-2.36l7.9,0l0,1.44l-7.9,0c-0.83,0 -1.22,0.32 -1.22,0.91l0,5.09c0,0.58 0.39,0.9 1.22,0.9l7.9,0l0,1.45l-7.9,0z" fill="#F5F5F5" id="svg_13"/>
    <path d="m194.97,109.07l-5.05,-7.89l-5.14,7.89l-2.06,0l6.51,-9.79l1.35,0l6.48,9.79l-2.09,0z" fill="#F5F5F5" id="svg_14"/>
    <path d="m206.86,109.07l0,-9.79l1.87,0l0,8.35l7.94,0l0,1.44l-9.81,0z" fill="#F5F5F5" id="svg_15"/>
    <path d="m229.88,109.07c-2.23,0 -3.08,-0.96 -3.08,-2.36l0,-5.07c0,-1.4 0.85,-2.36 3.08,-2.36l7.89,0l0,1.44l-7.89,0c-0.84,0 -1.23,0.32 -1.23,0.91l0,5.09c0,0.58 0.39,0.9 1.23,0.9l7.89,0l0,1.45l-7.89,0z" fill="#F5F5F5" id="svg_16"/>
    <path d="m248.35,109.07l0,-1.44l8.52,0c0.84,0 1.23,-0.32 1.23,-0.91l0,-1.24c0,-0.58 -0.39,-0.9 -1.23,-0.9l-5.76,0c-2.23,0 -3.08,-0.96 -3.08,-2.37l0,-0.57c0,-1.4 0.85,-2.36 3.08,-2.36l8.29,0l0,1.44l-8.29,0c-0.84,0 -1.23,0.32 -1.23,0.91l0,0.6c0,0.58 0.39,0.9 1.23,0.9l5.76,0c2.23,0 3.08,0.96 3.08,2.37l0,1.21c0,1.4 -0.85,2.36 -3.08,2.36l-8.52,0z" fill="#F5F5F5" id="svg_17"/>
   </g>
   <circle cx="111.91" cy="10.5" fill="#F5F5F5" id="svg_18" r="6.92"/>
   <circle cx="168.82" cy="142.01" fill="#F5F5F5" id="svg_19" r="4.23"/>
   <g id="svg_20">
    <path d="m172.27,4.68c-2.26,0.13 -4.67,0.6 -6.97,1.66c-7.8,3.56 -11.37,12.48 -11.37,12.48s9.07,3.15 16.88,-0.41c2.39,-1.1 4.39,-2.69 6,-4.38l-4.54,-9.35zm-6.54,8.73c-0.81,-1.77 -0.03,-3.84 1.74,-4.65c1.76,-0.8 3.83,-0.03 4.64,1.74c0.81,1.75 0.03,3.84 -1.73,4.64c-1.77,0.8 -3.84,0.03 -4.65,-1.73z" fill="#F5F5F5" id="svg_21"/>
    <path d="m178.83,11.64c2.27,-3.02 3.36,-5.72 3.36,-5.72s-2.85,-0.99 -6.73,-1.23l3.37,6.95z" fill="#F5F5F5" id="svg_22"/>
    <path d="m164.23,25.78c1.56,-1.15 1.78,-3.12 1.76,-4.31c-2.11,0.43 -4.32,0.44 -6.49,0.15l-5.86,5.33c0,0 8.42,0.42 10.59,-1.17z" fill="#F5F5F5" id="svg_23"/>
    <path d="m155.15,6.72c1.9,-0.43 3.54,0.7 4.41,1.5c-1.7,1.3 -3.15,2.98 -4.36,4.8l-7.86,0.94c0,0 5.19,-6.64 7.81,-7.24z" fill="#F5F5F5" id="svg_24"/>
   </g>
   <path d="m182.32,59.97l2.04,0c-3.48,-4.02 -7.2,-8.02 -11.17,-11.93c-8.35,-8.25 -17.03,-15.42 -25.63,-21.38c-0.44,0.31 -0.88,0.62 -1.33,0.95c8.67,5.97 17.44,13.19 25.89,21.52c3.61,3.56 7,7.19 10.2,10.84z" fill="#F5F5F5" id="svg_25"/>
   <path d="m97.29,6.66c-7.23,0 -13.34,2 -17.6,6.32c-4.16,4.22 -6.09,10.17 -6.09,17.16c0,8.01 2.51,17.45 7.16,27.57l1.71,0c-4.78,-10.22 -7.33,-19.71 -7.33,-27.57c0,-6.73 1.84,-12.22 5.65,-16.08c3.9,-3.95 9.54,-5.86 16.5,-5.86c9.72,-0.01 21.92,3.77 34.93,10.8c3.6,1.94 7.26,4.13 10.95,6.55l1.42,-0.9c-3.92,-2.6 -7.81,-4.94 -11.63,-7.01c-13.17,-7.09 -25.56,-10.97 -35.67,-10.98z" fill="#F5F5F5" id="svg_26"/>
   <path d="m164.12,113.81c-6.06,5.78 -12.23,10.94 -18.35,15.4c0.48,0.28 0.96,0.57 1.45,0.85c6,-4.42 12.04,-9.48 17.96,-15.14l-1.06,-1.11zm-34.84,25.84c-11.26,6.01 -21.78,9.24 -30.33,9.24c-6.16,0 -11.27,-1.66 -15.01,-5.1c-4.35,-4 -6.47,-10.07 -6.47,-17.67c0,-9.72 3.5,-21.86 10.05,-34.85c1.93,-3.84 4.14,-7.76 6.6,-11.71c-0.69,0.18 -1.39,0.34 -2.1,0.47c-2.17,3.56 -4.13,7.08 -5.88,10.55c-6.62,13.13 -10.2,25.45 -10.21,35.54c0,7.87 2.21,14.43 6.97,18.81c4.08,3.75 9.62,5.5 16.05,5.5c8.93,-0.01 19.65,-3.34 31.06,-9.42c4.13,-2.21 8.36,-4.79 12.63,-7.7c-0.47,-0.31 -0.93,-0.61 -1.39,-0.92c-4.05,2.74 -8.05,5.17 -11.97,7.26z" fill="#F5F5F5" id="svg_27"/>
  </g>
 </g>
</svg>