<svg xmlns="http://www.w3.org/2000/svg" viewBox="0 0 384 1024" fill="white">
<!--! Font Awesome Pro 6.3.0 by @fontawesome - https://fontawesome.com License - https://fontawesome.com/license (Commercial License) Copyright 2023 Fonticons, Inc. -->
<path d="M64 0C28.7 0 0 28.7 0 64V448c0 35.3 28.7 64 64 64H320c35.3 0 64-28.7 64-64V64c0-35.3-28.7-64-64-64H64zM96 64H288c17.7 0 32 14.3 32 32v32c0 17.7-14.3 32-32 32H96c-17.7 0-32-14.3-32-32V96c0-17.7 14.3-32 32-32zm32 160a32 32 0 1 1 -64 0 32 32 0 1 1 64 0zM96 352a32 32 0 1 1 0-64 32 32 0 1 1 0 64zM64 416c0-17.7 14.3-32 32-32h96c17.7 0 32 14.3 32 32s-14.3 32-32 32H96c-17.7 0-32-14.3-32-32zM192 256a32 32 0 1 1 0-64 32 32 0 1 1 0 64zm32 64a32 32 0 1 1 -64 0 32 32 0 1 1 64 0zm64-64a32 32 0 1 1 0-64 32 32 0 1 1 0 64zm32 64a32 32 0 1 1 -64 0 32 32 0 1 1 64 0zM288 448a32 32 0 1 1 0-64 32 32 0 1 1 0 64z"/>
<g transform="translate(384,1024) rotate(180)">
<path d="M372.5 256.5l-.7-1.9C337.8 160.8 282 76.5 209.1 8.5l-3.3-3C202.1 2 197.1 0 192 0s-10.1 2-13.8 5.5l-3.3 3C102 76.5 46.2 160.8 12.2 254.6l-.7 1.9C3.9 277.3 0 299.4 0 321.6C0 426.7 86.8 512 192 512s192-85.3 192-190.4c0-22.2-3.9-44.2-11.5-65.1zm-90.8 49.5c4.1 9.3 6.2 19.4 6.2 29.5c0 53-43 96.5-96 96.5s-96-43.5-96-96.5c0-10.1 2.1-20.3 6.2-29.5l1.9-4.3c15.8-35.4 37.9-67.7 65.3-95.1l8.9-8.9c3.6-3.6 8.5-5.6 13.6-5.6s10 2 13.6 5.6l8.9 8.9c27.4 27.4 49.6 59.7 65.3 95.1l1.9 4.3z"/>
</g>
</svg>