<?xml version="1.0"?>
<svg width="270" height="60" xmlns="http://www.w3.org/2000/svg" xmlns:svg="http://www.w3.org/2000/svg" enable-background="new 0 0 600 450" version="1.1" xml:space="preserve">
 <g class="layer">
  <title>Layer 1</title>
  <g id="svg_2">
   <g id="svg_3">
    <path d="m15.25,25.62c-0.94,-0.42 -1.77,-0.98 -2.47,-1.68c-0.71,-0.71 -1.27,-1.53 -1.68,-2.47c-0.41,-0.95 -0.62,-1.97 -0.62,-3.07c0,-1.1 0.21,-2.12 0.62,-3.06c0.41,-0.94 0.97,-1.76 1.68,-2.47c0.7,-0.71 1.53,-1.27 2.47,-1.68c0.94,-0.41 1.96,-0.62 3.06,-0.62l35.74,0c0.78,0 1.45,0.28 2,0.83c0.55,0.55 0.82,1.21 0.82,2c0,0.79 -0.27,1.45 -0.82,2c-0.55,0.55 -1.22,0.82 -2,0.82l-35.86,0c-0.58,0 -1.1,0.21 -1.56,0.62c-0.45,0.41 -0.67,0.94 -0.67,1.56c0,0.59 0.22,1.1 0.67,1.53c0.46,0.44 0.98,0.65 1.56,0.65l32.56,0c1.1,0 2.13,0.21 3.09,0.62c0.96,0.41 1.8,0.97 2.5,1.68c0.71,0.7 1.27,1.54 1.68,2.5s0.62,1.99 0.62,3.09s-0.21,2.12 -0.62,3.06c-0.41,0.94 -0.97,1.77 -1.68,2.47c-0.7,0.71 -1.54,1.26 -2.5,1.65c-0.96,0.4 -1.99,0.59 -3.09,0.59l-35.68,0c-0.78,0 -1.45,-0.27 -2,-0.82c-0.55,-0.55 -0.82,-1.22 -0.82,-2.01s0.27,-1.45 0.82,-2c0.55,-0.55 1.22,-0.82 2,-0.82l35.92,0c0.58,0 1.09,-0.21 1.53,-0.62c0.43,-0.41 0.64,-0.91 0.64,-1.5c0,-0.63 -0.21,-1.16 -0.64,-1.59c-0.44,-0.43 -0.95,-0.65 -1.53,-0.65l-32.68,0c-1.1,0 -2.12,-0.2 -3.06,-0.61z" fill="#F5F5F5" id="svg_4"/>
    <path d="m64.53,13.4c0,-0.78 0.27,-1.45 0.82,-2c0.55,-0.55 1.22,-0.83 2,-0.83l35.27,0c1.09,0 2.12,0.21 3.09,0.62c0.96,0.41 1.8,0.97 2.53,1.68c0.72,0.71 1.29,1.53 1.7,2.47c0.42,0.94 0.62,1.97 0.62,3.06c0,1.1 -0.2,2.12 -0.62,3.07c-0.41,0.94 -0.98,1.76 -1.7,2.47c-0.73,0.71 -1.57,1.27 -2.53,1.68c-0.97,0.41 -2,0.62 -3.09,0.62l-30.62,0c-0.51,0.07 -0.94,0.31 -1.29,0.7c-0.36,0.4 -0.53,0.88 -0.53,1.47l0,5.01c0,0.78 -0.29,1.45 -0.86,2c-0.57,0.55 -1.22,0.82 -1.97,0.82c-0.79,0 -1.45,-0.27 -2,-0.82c-0.55,-0.55 -0.83,-1.22 -0.83,-2l0,-5.65c0,-0.98 0.18,-1.92 0.53,-2.8c0.36,-0.88 0.86,-1.65 1.51,-2.3c0.64,-0.64 1.39,-1.15 2.23,-1.53c0.85,-0.37 1.78,-0.56 2.8,-0.56l31.26,0c0.59,0 1.11,-0.2 1.56,-0.61c0.45,-0.42 0.68,-0.94 0.68,-1.56c0,-0.59 -0.23,-1.1 -0.68,-1.54c-0.45,-0.43 -0.97,-0.64 -1.56,-0.64l-35.5,0c-0.79,0 -1.45,-0.28 -2,-0.83c-0.55,-0.55 -0.82,-1.21 -0.82,-2z" fill="#F5F5F5" id="svg_5"/>
    <path d="m118.51,35.18c-0.59,0.71 -1.32,1.06 -2.18,1.06c-0.78,0 -1.45,-0.27 -2,-0.82c-0.55,-0.55 -0.82,-1.22 -0.82,-2c0,-0.71 0.19,-1.28 0.58,-1.71l14.31,-19.25c0.67,-0.9 1.55,-1.64 2.65,-2.21c1.1,-0.57 2.28,-0.85 3.53,-0.85c1.18,0 2.3,0.25 3.36,0.76c1.06,0.51 1.92,1.22 2.59,2.12l14.3,19.14c0.24,0.27 0.43,0.57 0.59,0.91c0.16,0.33 0.24,0.69 0.24,1.09c0,0.78 -0.28,1.45 -0.83,2c-0.55,0.55 -1.21,0.82 -2,0.82c-0.94,0 -1.69,-0.37 -2.24,-1.11l-13.71,-18.31c-0.28,-0.32 -0.62,-0.66 -1.03,-1.03c-0.41,-0.38 -0.84,-0.56 -1.27,-0.56c-0.43,0 -0.85,0.18 -1.26,0.56c-0.42,0.37 -0.74,0.71 -0.98,1.03l-13.83,18.36z" fill="#F5F5F5" id="svg_6"/>
    <path d="m160.07,23.41c0,-1.49 0.25,-2.99 0.74,-4.51c0.49,-1.51 1.21,-2.88 2.15,-4.12c0.94,-1.23 2.08,-2.24 3.41,-3.03c1.34,-0.78 2.85,-1.18 4.54,-1.18l34.32,0c0.78,0 1.45,0.28 2,0.83c0.55,0.55 0.82,1.22 0.82,2c0,0.79 -0.27,1.45 -0.82,2c-0.55,0.55 -1.22,0.83 -2,0.83l-33.09,0c-1.37,0 -2.48,0.24 -3.33,0.73c-0.84,0.49 -1.51,1.09 -2,1.8c-0.49,0.7 -0.82,1.48 -1,2.32c-0.17,0.85 -0.26,1.62 -0.26,2.33s0.09,1.48 0.26,2.32c0.18,0.85 0.51,1.62 1,2.33c0.49,0.7 1.16,1.3 2,1.79c0.85,0.49 1.96,0.74 3.33,0.74l33.09,0c0.78,0 1.45,0.27 2,0.82c0.55,0.55 0.82,1.22 0.82,2.01s-0.27,1.45 -0.82,2c-0.55,0.55 -1.22,0.82 -2,0.82l-34.91,0c-1.61,0 -3.05,-0.39 -4.3,-1.18c-1.26,-0.78 -2.33,-1.79 -3.21,-3.03c-0.88,-1.23 -1.56,-2.62 -2.03,-4.15c-0.47,-1.53 -0.71,-3.02 -0.71,-4.47z" fill="#F5F5F5" id="svg_7"/>
    <path d="m213.94,13.4c0,-0.78 0.27,-1.45 0.82,-2c0.55,-0.55 1.22,-0.83 2.01,-0.83l41.73,0c0.79,0 1.46,0.28 2.01,0.83c0.55,0.55 0.82,1.22 0.82,2c0,0.79 -0.27,1.45 -0.82,2c-0.55,0.55 -1.22,0.83 -2.01,0.83l-41.73,0c-0.79,0 -1.46,-0.28 -2.01,-0.83c-0.55,-0.55 -0.82,-1.21 -0.82,-2zm7.18,22.84c-0.86,0 -1.73,-0.18 -2.59,-0.56s-1.63,-0.89 -2.29,-1.56c-0.67,-0.67 -1.22,-1.47 -1.65,-2.41c-0.44,-0.94 -0.65,-2 -0.65,-3.18l0,-5.3c0,-1.06 0.3,-1.77 0.91,-2.12c0.61,-0.35 1.56,-0.53 2.86,-0.53l39.5,0c0.79,0 1.45,0.28 2,0.83c0.55,0.55 0.83,1.21 0.83,2c0,0.78 -0.28,1.45 -0.83,2c-0.55,0.55 -1.21,0.82 -2,0.82l-37.62,0l0,2.89c0,0.39 0.17,0.73 0.5,1.03c0.34,0.29 0.78,0.44 1.33,0.44l37.08,0c0.79,0 1.46,0.27 2.01,0.82c0.55,0.55 0.82,1.22 0.82,2s-0.27,1.46 -0.82,2.01c-0.55,0.55 -1.22,0.82 -2.01,0.82l-37.38,0z" fill="#F5F5F5" id="svg_8"/>
   </g>
   <g id="svg_12">
    <path d="m166.27,53.07c-2.22,0 -3.07,-0.96 -3.07,-2.36l0,-5.07c0,-1.4 0.85,-2.36 3.07,-2.36l7.9,0l0,1.44l-7.9,0c-0.83,0 -1.22,0.32 -1.22,0.91l0,5.09c0,0.58 0.39,0.9 1.22,0.9l7.9,0l0,1.45l-7.9,0z" fill="#F5F5F5" id="svg_13"/>
    <path d="m195.97,53.07l-5.05,-7.89l-5.14,7.89l-2.06,0l6.51,-9.79l1.35,0l6.48,9.79l-2.09,0z" fill="#F5F5F5" id="svg_14"/>
    <path d="m207.86,53.07l0,-9.79l1.87,0l0,8.35l7.94,0l0,1.44l-9.81,0z" fill="#F5F5F5" id="svg_15"/>
    <path d="m230.88,53.07c-2.23,0 -3.08,-0.96 -3.08,-2.36l0,-5.07c0,-1.4 0.85,-2.36 3.08,-2.36l7.89,0l0,1.44l-7.89,0c-0.84,0 -1.23,0.32 -1.23,0.91l0,5.09c0,0.58 0.39,0.9 1.23,0.9l7.89,0l0,1.45l-7.89,0z" fill="#F5F5F5" id="svg_16"/>
    <path d="m249.35,53.07l0,-1.44l8.52,0c0.84,0 1.23,-0.32 1.23,-0.91l0,-1.24c0,-0.58 -0.39,-0.9 -1.23,-0.9l-5.76,0c-2.23,0 -3.08,-0.96 -3.08,-2.37l0,-0.57c0,-1.4 0.85,-2.36 3.08,-2.36l8.29,0l0,1.44l-8.29,0c-0.84,0 -1.23,0.32 -1.23,0.91l0,0.6c0,0.58 0.39,0.9 1.23,0.9l5.76,0c2.23,0 3.08,0.96 3.08,2.37l0,1.21c0,1.4 -0.85,2.36 -3.08,2.36l-8.52,0z" fill="#F5F5F5" id="svg_17"/>
   </g>
  </g>
 </g>
</svg>